# xmcd
#
# Track frame offsets:
# 150
# 17852
# 31018
# 48463
# 63185
# 76557
# 92541
# 110163
# 122796
# 139458
# 154568
# 171306
# 185871
# 200107
# 211524
# 228650
# 239834
# 259622
# 277718
# 296076
#
# Disc length: 4121 seconds
#
#
# Revision: 0
# Processed by: cddbd v1.5.1PL0 Copyright (c) Steve Scherf et al.
# Submitted via: FreeRIP 2.942 
#
DISCID=20101714
DTITLE=Alan Jackson - As 20 mais de Alan Jackson
DYEAR=2005
DGENRE=Country
TTITLE0=I´ll Try
TTITLE1=Don´t Rock the Jukebox
TTITLE2=Livin´on Love
TTITLE3=Summertime Blues
TTITLE4=Love´Got a Hold on You
TTITLE5=You Can´t have It All
TTITLE6=I Don´t Even Know Your Name
TTITLE7=Dallas
TTITLE8=Here in the Real World
TTITLE9=Someday
TTITLE10=Mercury Blues
TTITLE11=I´d Love You All Over Again
TTITLE12=Chasin´ That Neon Rainbow
TTITLE13=Tall, Tall Trees
TTITLE14=Midnight in Montgomery
TTITLE15=She´s Got The Rhythm
TTITLE16=Gone Country
TTITLE17=Chatt an Oochee
TTITLE18=Drive
TTITLE19=A Little Bluer Than That
EXTD=
EXTT0=
EXTT1=
EXTT2=
EXTT3=
EXTT4=
EXTT5=
EXTT6=
EXTT7=
EXTT8=
EXTT9=
EXTT10=
EXTT11=
EXTT12=
EXTT13=
EXTT14=
EXTT15=
EXTT16=
EXTT17=
EXTT18=
EXTT19=
PLAYORDER=
